<?xml version="1.0" encoding="UTF-8"?>
<svg xmlns="http://www.w3.org/2000/svg" width="1400" height="1000" viewBox="0 0 1400 1000" preserveAspectRatio="xMidYMid slice">
  <style><![CDATA[
    @keyframes tw { 0%{opacity:1} 20%{opacity:.25} 40%{opacity:1} 60%{opacity:.55} 80%{opacity:.25} 100%{opacity:1} }
    @keyframes tw2{ 0%{opacity:.2} 50%{opacity:1} 100%{opacity:.2} }
    circle { fill:#fff; }
    .a{animation:tw 6s ease-in-out infinite}
    .b{animation:tw2 9s ease-in-out infinite}
  ]]></style>
  <g opacity=".85">
    <circle class="a" cx="60"   cy="80"  r="1.4" style="animation-delay:-0.2s"/>
    <circle class="b" cx="140"  cy="220" r="1.1" style="animation-delay:-1.1s"/>
    <circle class="a" cx="230"  cy="40"  r="1.6" style="animation-delay:-2.4s"/>
    <circle class="b" cx="310"  cy="160" r="1.2" style="animation-delay:-3.7s"/>
    <circle class="a" cx="410"  cy="90"  r="1.4" style="animation-delay:-0.8s"/>
    <circle class="b" cx="490"  cy="260" r="1.1" style="animation-delay:-4.4s"/>
    <circle class="a" cx="580"  cy="50"  r="1.7" style="animation-delay:-5.2s"/>
    <circle class="b" cx="660"  cy="180" r="1.0" style="animation-delay:-2.8s"/>
    <circle class="a" cx="730"  cy="320" r="1.5" style="animation-delay:-6.1s"/>
    <circle class="b" cx="820"  cy="70"  r="1.2" style="animation-delay:-0.4s"/>
    <circle class="a" cx="900"  cy="200" r="1.3" style="animation-delay:-3.3s"/>
    <circle class="b" cx="990"  cy="100" r="1.6" style="animation-delay:-7.0s"/>
    <circle class="a" cx="1080" cy="280" r="1.1" style="animation-delay:-1.6s"/>
    <circle class="b" cx="1170" cy="60"  r="1.4" style="animation-delay:-4.8s"/>
    <circle class="a" cx="1260" cy="190" r="1.3" style="animation-delay:-2.0s"/>
    <circle class="b" cx="1340" cy="120" r="1.2" style="animation-delay:-5.5s"/>
    <circle class="a" cx="90"   cy="380" r="1.4" style="animation-delay:-3.0s"/>
    <circle class="b" cx="200"  cy="500" r="1.1" style="animation-delay:-1.4s"/>
    <circle class="a" cx="340"  cy="440" r="1.6" style="animation-delay:-6.7s"/>
    <circle class="b" cx="460"  cy="580" r="1.2" style="animation-delay:-2.5s"/>
    <circle class="a" cx="600"  cy="420" r="1.3" style="animation-delay:-4.1s"/>
    <circle class="b" cx="720"  cy="540" r="1.0" style="animation-delay:-0.9s"/>
    <circle class="a" cx="860"  cy="460" r="1.5" style="animation-delay:-5.8s"/>
    <circle class="b" cx="980"  cy="600" r="1.1" style="animation-delay:-3.6s"/>
    <circle class="a" cx="1110" cy="430" r="1.3" style="animation-delay:-1.8s"/>
    <circle class="b" cx="1230" cy="560" r="1.4" style="animation-delay:-6.3s"/>
    <circle class="a" cx="1340" cy="480" r="1.2" style="animation-delay:-4.5s"/>
    <circle class="a" cx="50"   cy="700" r="1.3" style="animation-delay:-0.6s"/>
    <circle class="b" cx="180"  cy="820" r="1.1" style="animation-delay:-5.0s"/>
    <circle class="a" cx="320"  cy="760" r="1.7" style="animation-delay:-2.3s"/>
    <circle class="b" cx="450"  cy="900" r="1.0" style="animation-delay:-3.9s"/>
    <circle class="a" cx="590"  cy="740" r="1.4" style="animation-delay:-7.2s"/>
    <circle class="b" cx="710"  cy="860" r="1.2" style="animation-delay:-1.0s"/>
    <circle class="a" cx="850"  cy="790" r="1.5" style="animation-delay:-4.6s"/>
    <circle class="b" cx="970"  cy="920" r="1.1" style="animation-delay:-2.7s"/>
    <circle class="a" cx="1100" cy="750" r="1.3" style="animation-delay:-6.5s"/>
    <circle class="b" cx="1220" cy="880" r="1.4" style="animation-delay:-0.3s"/>
    <circle class="a" cx="1330" cy="810" r="1.2" style="animation-delay:-5.4s"/>
  </g>
</svg>
